External Loads File
version=1
nRows=62
nColumns=13
Range=5.000000e-03-10 seconds
endheader
time 	forceRightX 	forceRightY 	forceRightZ 	pointRightX 	pointRightY 	pointRightZ 	forceLeftX 	forceLeftY 	forceLeftZ 	pointLeftX 	pointLeftY 	pointLeftZ 		
2.505000 -87.134996 -94.561648 -0.000000 0.118230 0.406642 -0.158446 -34.983217 1272.269627 -0.000000 0.348460 0.223779 -0.402492
2.510000 -94.530106 -90.878861 -0.000000 0.122169 0.412599 -0.158697 -28.142898 1286.732853 -0.000000 0.345301 0.217934 -0.402427
2.515000 -100.966610 -86.548957 -0.000000 0.126357 0.418559 -0.158953 -18.018402 1298.360292 -0.000000 0.341887 0.212280 -0.402393
2.520000 -106.183218 -81.689068 -0.000000 0.130540 0.424359 -0.159400 -5.609446 1305.841161 -0.000000 0.338222 0.206832 -0.402353
2.525000 -110.188137 -76.316519 -0.000000 0.135050 0.430070 -0.159670 10.424259 1307.785862 -0.000000 0.334329 0.201555 -0.402327
2.530000 -112.957204 -70.721824 -0.000000 0.139670 0.435681 -0.159971 28.842231 1302.838436 -0.000000 0.330244 0.196552 -0.402300
2.535000 -114.691267 -65.029452 -0.000000 0.144449 0.441531 -0.160276 50.127774 1289.827863 -0.000000 0.326063 0.191753 -0.402311
2.540000 -115.508739 -59.584073 -0.000000 0.149379 0.446586 -0.160558 71.371974 1267.980383 -0.000000 0.321637 0.187248 -0.402366
2.545000 -115.770010 -54.289702 -0.000000 0.154258 0.451736 -0.160971 93.517942 1236.686891 -0.000000 0.317120 0.182781 -0.402434
2.550000 -115.728240 -49.098846 -0.000000 0.159584 0.456417 -0.161110 115.697004 1195.686222 -0.000000 0.312485 0.178575 -0.402491
2.555000 -115.669367 -43.639995 -0.000000 0.166005 0.461099 -0.160185 139.493063 1144.758057 -0.000000 0.307721 0.174985 -0.402324
2.560000 -115.423674 -38.515044 -0.000000 0.171117 0.465668 -0.160947 156.879784 1085.227039 -0.000000 0.302901 0.171556 -0.402179
2.565000 -115.222741 -33.208922 -0.000000 0.176551 0.469814 -0.161478 171.651878 1017.521310 -0.000000 0.298102 0.168251 -0.402104
2.570000 -115.092255 -27.637584 -0.000000 0.182159 0.473929 -0.161748 183.211965 942.811051 -0.000000 0.293243 0.165343 -0.402100
2.575000 -115.064225 -21.543473 -0.000000 0.188462 0.477530 -0.161335 192.086992 862.209475 -0.000000 0.288369 0.162688 -0.402002
2.580000 -115.055298 -15.065386 -0.000000 0.194398 0.480995 -0.161714 195.852786 777.593871 -0.000000 0.283504 0.160300 -0.401932
2.585000 -115.045680 -7.938874 -0.000000 0.200448 0.484242 -0.161826 195.881477 690.159948 -0.000000 0.278690 0.158059 -0.401929
2.590000 -114.952226 -0.141937 -0.000000 0.206626 0.487198 -0.161935 192.564556 601.355122 -0.000000 0.273919 0.156121 -0.401916
2.595000 -114.671617 8.250066 -0.000000 0.212826 0.489758 -0.162026 186.516020 512.607188 -0.000000 0.269121 0.154444 -0.401958
2.600000 -114.054108 17.254968 -0.000000 0.219381 0.492001 -0.161981 179.055156 425.067915 -0.000000 0.264264 0.153114 -0.402037
2.605000 -112.932881 26.651638 -0.000000 0.225827 0.494047 -0.161940 170.424003 340.185523 -0.000000 0.259352 0.151956 -0.402143
2.610000 -111.103933 36.471372 -0.000000 0.232151 0.495796 -0.162069 161.687249 258.896061 -0.000000 0.254241 0.151093 -0.402276
2.615000 -108.321571 46.904257 -0.000000 0.238614 0.497258 -0.162304 153.847685 181.823066 -0.000000 0.248893 0.150430 -0.402502
2.620000 -104.425318 58.035801 -0.000000 0.244770 0.498276 -0.162064 147.258307 109.745588 -0.000000 0.243160 0.150102 -0.402746
2.625000 -99.154918 70.300873 -0.000000 0.251103 0.499135 -0.162074 142.363212 42.998762 -0.000000 0.237025 0.149986 -0.402950
2.630000 -92.430172 83.905414 -0.000000 0.257207 0.499484 -0.161985 138.934424 -17.776697 -0.000000 0.230442 0.150242 -0.403180
2.635000 -84.162149 99.167873 -0.000000 0.263285 0.499624 -0.161894 136.586771 -72.221213 -0.000000 0.223599 0.150944 -0.403332
2.640000 -74.459800 116.273565 -0.000000 0.269127 0.499490 -0.161821 134.755184 -119.947952 -0.000000 0.216699 0.151998 -0.403372
2.645000 -63.551313 135.453805 -0.000000 0.274649 0.498776 -0.161664 132.795712 -160.815378 -0.000000 0.209973 0.153442 -0.403356
2.650000 -51.826785 156.997654 -0.000000 0.279810 0.497867 -0.161408 130.076283 -194.914409 -0.000000 0.203496 0.155262 -0.403199
2.655000 -39.700356 181.322620 -0.000000 0.284796 0.496593 -0.161267 125.959799 -222.682101 -0.000000 0.197258 0.157275 -0.402886
2.660000 -27.809908 208.895027 -0.000000 0.289501 0.494939 -0.161097 120.217652 -244.718465 -0.000000 0.191226 0.159539 -0.402425
2.665000 -16.722564 240.239586 -0.000000 0.293901 0.492849 -0.160808 112.762402 -261.912256 -0.000000 0.185270 0.162149 -0.401870
2.670000 -6.975692 275.781914 -0.000000 0.298122 0.490447 -0.160260 103.724436 -275.138615 -0.000000 0.179403 0.165126 -0.401176
2.675000 0.934339 315.736804 -0.000000 0.302093 0.487408 -0.159973 93.408895 -285.001599 -0.000000 0.173634 0.168258 -0.400589
2.680000 6.827887 359.990509 -0.000000 0.306029 0.484059 -0.159861 81.998793 -291.794382 -0.000000 0.167971 0.171696 -0.400202
2.685000 10.340933 407.992626 -0.000000 0.309699 0.480191 -0.159879 69.966620 -295.459735 -0.000000 0.162499 0.175397 -0.399996
2.690000 11.886543 458.698018 -0.000000 0.313766 0.476027 -0.159525 57.334123 -295.979688 -0.000000 0.157266 0.179050 -0.399794
2.695000 11.397838 510.667514 -0.000000 0.317468 0.471302 -0.159162 44.674701 -293.223378 -0.000000 0.152116 0.183129 -0.399458
2.700000 9.399202 562.230483 -0.000000 0.321365 0.466398 -0.159339 32.333149 -287.187919 -0.000000 0.147069 0.187367 -0.399213
2.705000 5.577093 611.738951 -0.000000 0.325086 0.461211 -0.159536 21.150570 -277.947050 -0.000000 0.142124 0.191732 -0.399081
2.710000 0.666607 657.721357 -0.000000 0.328987 0.455735 -0.159702 11.361999 -265.820381 -0.000000 0.137259 0.196230 -0.399195
2.715000 -5.216500 699.036604 -0.000000 0.333012 0.449938 -0.160236 3.418431 -251.249568 -0.000000 0.132558 0.200947 -0.399448
2.720000 -12.234924 734.922832 -0.000000 0.337049 0.444066 -0.160574 -2.272679 -234.799628 -0.000000 0.127941 0.205901 -0.399822
2.725000 -19.989266 765.033957 -0.000000 0.341158 0.438021 -0.161031 -5.663164 -217.119764 -0.000000 0.123493 0.211116 -0.400264
2.730000 -28.828144 789.420792 -0.000000 0.345176 0.431971 -0.161497 -6.673184 -198.876858 -0.000000 0.119293 0.216632 -0.400875
2.735000 -37.533728 808.562086 -0.000000 0.349118 0.425551 -0.161970 -5.810939 -180.642918 -0.000000 0.115271 0.222456 -0.401041
2.740000 -45.975226 823.208000 -0.000000 0.352950 0.419082 -0.162468 -3.379256 -162.870712 -0.000000 0.110922 0.228400 -0.400499
2.745000 -54.270293 834.281703 -0.000000 0.356617 0.412011 -0.162851 0.288648 -145.910751 -0.000000 0.107401 0.234707 -0.400771
2.750000 -63.060277 842.737633 -0.000000 0.360155 0.405015 -0.162979 4.926359 -130.035362 -0.000000 0.104201 0.241141 -0.400884
2.755000 -71.078128 849.608581 -0.000000 0.363424 0.397722 -0.163009 10.038999 -115.459954 -0.000000 0.101247 0.247766 -0.400933
2.760000 -78.123945 855.716152 -0.000000 0.366401 0.390142 -0.162883 15.438453 -102.372538 -0.000000 0.098645 0.254546 -0.400905
2.765000 -84.065090 861.708841 -0.000000 0.369109 0.382449 -0.162778 20.947127 -90.967112 -0.000000 0.096353 0.261496 -0.401051
2.770000 -88.680863 868.113812 -0.000000 0.371484 0.374570 -0.162421 26.313785 -81.441011 -0.000000 0.094392 0.268538 -0.401258
2.775000 -92.036296 875.333096 -0.000000 0.373666 0.366688 -0.162421 31.281134 -73.947130 -0.000000 0.092752 0.275708 -0.401370
2.780000 -93.427382 883.766084 -0.000000 0.375487 0.358604 -0.162216 35.516093 -68.605206 -0.000000 0.091525 0.283112 -0.401604
2.785000 -94.072142 893.524162 -0.000000 0.376970 0.350538 -0.162125 38.815648 -65.375488 -0.000000 0.090644 0.290511 -0.401896
2.790000 -92.840415 904.887850 -0.000000 0.378081 0.342298 -0.162037 40.796608 -64.203769 -0.000000 0.090181 0.298103 -0.402126
2.795000 -90.864302 917.871539 -0.000000 0.378837 0.334079 -0.161971 41.324047 -64.841357 -0.000000 0.090106 0.305711 -0.402302
2.800000 -87.755977 932.666901 -0.000000 0.379263 0.325834 -0.161967 40.262008 -67.036698 -0.000000 0.090481 0.313420 -0.402587
2.805000 -83.897072 949.380082 -0.000000 0.379453 0.317673 -0.161802 37.592731 -70.448756 -0.000000 0.091214 0.321210 -0.402785
2.810000 -78.511717 968.145544 -0.000000 0.379089 0.309270 -0.162051 33.264151 -74.730627 -0.000000 0.092329 0.328944 -0.403037
